<svg viewBox="0 0 24 24" fill="none" xmlns="http://www.w3.org/2000/svg" data-icon-name="brain"><path d="M12 20.6333C12.7349 21.1252 13.6187 21.4121 14.5694 21.4121C16.6819 21.4121 18.4635 19.9959 19.0167 18.0612C20.3271 17.5238 21.25 16.2355 21.25 14.7316C21.25 13.725 20.8366 12.815 20.1703 12.1621C20.8366 11.5092 21.25 10.5992 21.25 9.59267C21.25 7.73764 19.8459 6.21057 18.0425 6.01631C17.5934 4.23258 15.9787 2.91211 14.0556 2.91211C13.3067 2.91211 12.6047 3.11231 12 3.4621M12 20.6333C11.2651 21.1252 10.3813 21.4121 9.43056 21.4121C7.31815 21.4121 5.5365 19.9959 4.98327 18.0612C3.67291 17.5238 2.75 16.2355 2.75 14.7316C2.75 13.725 3.16341 12.815 3.82969 12.1621C3.16341 11.5092 2.75 10.5992 2.75 9.59267C2.75 7.73764 4.15413 6.21057 5.95754 6.0163C6.40662 4.23258 8.02133 2.91211 9.94444 2.91211C10.6933 2.91211 11.3953 3.11231 12 3.4621M12 20.6333L12 3.4621M8.75 13.9121C10.5449 13.9121 12 15.3672 12 17.1621M15.25 10.4121C13.4551 10.4121 12 8.95703 12 7.16211" stroke="currentColor" stroke-width="1.5" stroke-linecap="round"/></svg>