<svg viewBox="0 0 24 24" fill="none" xmlns="http://www.w3.org/2000/svg" data-icon-name="eye-off"><path d="M3 3L21 21" stroke="currentColor" stroke-width="2" stroke-linecap="round"/><path d="M10.5 5.32C11 5.11 11.49 5 12 5C18.5 5 22 12 22 12C22 12 20.83 14.22 18.78 16.01" stroke="currentColor" stroke-width="2" stroke-linecap="round" stroke-linejoin="round"/><path d="M6.61 6.87C4.12 8.79 2 12 2 12C2 12 5.5 19 12 19C13.76 19 15.3 18.46 16.62 17.68" stroke="currentColor" stroke-width="2" stroke-linecap="round" stroke-linejoin="round"/><path d="M14.12 14.12C13.56 14.68 12.82 15 12 15C10.34 15 9 13.66 9 12C9 11.18 9.32 10.44 9.88 9.88" stroke="currentColor" stroke-width="2" stroke-linecap="round"/></svg>
