<svg viewBox="0 0 24 25" fill="none" xmlns="http://www.w3.org/2000/svg" data-icon-name="file-lock-document"><path d="M4.75 2.91211V2.16211C4.33579 2.16211 4 2.4979 4 2.91211H4.75ZM12.75 2.91211L13.2803 2.38178C13.1397 2.24113 12.9489 2.16211 12.75 2.16211V2.91211ZM19.25 9.41211H20C20 9.2132 19.921 9.02243 19.7803 8.88178L19.25 9.41211ZM19.25 21.4121V22.1621C19.6642 22.1621 20 21.8263 20 21.4121H19.25ZM4 10.9121C4 11.3263 4.33579 11.6621 4.75 11.6621C5.16421 11.6621 5.5 11.3263 5.5 10.9121H4ZM13.25 20.6621C12.8358 20.6621 12.5 20.9979 12.5 21.4121C12.5 21.8263 12.8358 22.1621 13.25 22.1621V20.6621ZM12.75 9.41211H12C12 9.82632 12.3358 10.1621 12.75 10.1621V9.41211ZM3.75 16.9121V16.1621C3.33579 16.1621 3 16.4979 3 16.9121H3.75ZM10.25 16.9121H11C11 16.4979 10.6642 16.1621 10.25 16.1621V16.9121ZM10.25 21.4121V22.1621C10.6642 22.1621 11 21.8263 11 21.4121H10.25ZM3.75 21.4121H3C3 21.8263 3.33579 22.1621 3.75 22.1621V21.4121ZM9.25 16.9121V17.6621H10V16.9121H9.25ZM4.75 16.9121H4V17.6621H4.75V16.9121ZM4.75 3.66211H12.75V2.16211H4.75V3.66211ZM18.5 9.41211V21.4121H20V9.41211H18.5ZM12.2197 3.44244L18.7197 9.94244L19.7803 8.88178L13.2803 2.38178L12.2197 3.44244ZM5.5 10.9121V2.91211H4V10.9121H5.5ZM19.25 20.6621H13.25V22.1621H19.25V20.6621ZM12 2.91211V9.41211H13.5V2.91211H12ZM12.75 10.1621H19.25V8.66211H12.75V10.1621ZM3.75 17.6621H10.25V16.1621H3.75V17.6621ZM9.5 16.9121V21.4121H11V16.9121H9.5ZM10.25 20.6621H3.75V22.1621H10.25V20.6621ZM4.5 21.4121V16.9121H3V21.4121H4.5ZM8.5 16.1621V16.9121H10V16.1621H8.5ZM9.25 16.1621H4.75V17.6621H9.25V16.1621ZM5.5 16.9121V16.1621H4V16.9121H5.5ZM7 14.6621C7.82843 14.6621 8.5 15.3337 8.5 16.1621H10C10 14.5053 8.65685 13.1621 7 13.1621V14.6621ZM7 13.1621C5.34315 13.1621 4 14.5053 4 16.1621H5.5C5.5 15.3337 6.17157 14.6621 7 14.6621V13.1621Z" fill="currentColor"/></svg>
