<svg xmlns="http://www.w3.org/2000/svg" viewBox="0 0 24 24" fill="none" data-icon-name="fork"><path d="M12 12V16M12 12H6.5V8M12 12H17.5V8M9.25 5.5C9.25 7.01878 8.01878 8.25 6.5 8.25C4.98122 8.25 3.75 7.01878 3.75 5.5C3.75 3.98122 4.98122 2.75 6.5 2.75C8.01878 2.75 9.25 3.98122 9.25 5.5ZM20.25 5.5C20.25 7.01878 19.0188 8.25 17.5 8.25C15.9812 8.25 14.75 7.01878 14.75 5.5C14.75 3.98122 15.9812 2.75 17.5 2.75C19.0188 2.75 20.25 3.98122 20.25 5.5ZM14.75 18.5C14.75 20.0188 13.5188 21.25 12 21.25C10.4812 21.25 9.25 20.0188 9.25 18.5C9.25 16.9812 10.4812 15.75 12 15.75C13.5188 15.75 14.75 16.9812 14.75 18.5Z" stroke="currentColor" stroke-width="1.5" stroke-linejoin="round"/></svg>
