<svg viewBox="0 0 24 24" fill="none" xmlns="http://www.w3.org/2000/svg" data-icon-name="image"><path d="M3.75 3.91211V3.16211C3.33579 3.16211 3 3.4979 3 3.91211H3.75ZM20.25 3.91211H21C21 3.4979 20.6642 3.16211 20.25 3.16211V3.91211ZM20.25 20.4121V21.1621C20.6642 21.1621 21 20.8263 21 20.4121H20.25ZM3.75 20.4121H3C3 20.8263 3.33579 21.1621 3.75 21.1621V20.4121ZM3.23598 15.616C2.93435 15.8998 2.91996 16.3745 3.20385 16.6761C3.48774 16.9778 3.96239 16.9921 4.26402 16.7083L3.23598 15.616ZM8 12.1621L8.53033 11.6318C8.24369 11.3451 7.78117 11.3381 7.48598 11.616L8 12.1621ZM12 16.1621L11.4697 16.6924C11.7626 16.9853 12.2374 16.9853 12.5303 16.6924L12 16.1621ZM14 14.1621L14.5303 13.6318C14.2374 13.3389 13.7626 13.3389 13.4697 13.6318L14 14.1621ZM19.4697 20.6924C19.7626 20.9853 20.2374 20.9853 20.5303 20.6924C20.8232 20.3995 20.8232 19.9247 20.5303 19.6318L19.4697 20.6924ZM3.75 4.66211H20.25V3.16211H3.75V4.66211ZM19.5 3.91211V20.4121H21V3.91211H19.5ZM20.25 19.6621H3.75V21.1621H20.25V19.6621ZM4.5 20.4121V3.91211H3V20.4121H4.5ZM4.26402 16.7083L8.51402 12.7083L7.48598 11.616L3.23598 15.616L4.26402 16.7083ZM7.46967 12.6924L11.4697 16.6924L12.5303 15.6318L8.53033 11.6318L7.46967 12.6924ZM12.5303 16.6924L14.5303 14.6924L13.4697 13.6318L11.4697 15.6318L12.5303 16.6924ZM13.4697 14.6924L19.4697 20.6924L20.5303 19.6318L14.5303 13.6318L13.4697 14.6924ZM15 9.16211C15 9.57632 14.6642 9.91211 14.25 9.91211V11.4121C15.4926 11.4121 16.5 10.4047 16.5 9.16211H15ZM14.25 9.91211C13.8358 9.91211 13.5 9.57632 13.5 9.16211H12C12 10.4047 13.0074 11.4121 14.25 11.4121V9.91211ZM13.5 9.16211C13.5 8.7479 13.8358 8.41211 14.25 8.41211V6.91211C13.0074 6.91211 12 7.91947 12 9.16211H13.5ZM14.25 8.41211C14.6642 8.41211 15 8.7479 15 9.16211H16.5C16.5 7.91947 15.4926 6.91211 14.25 6.91211V8.41211Z" fill="currentColor"/></svg>