<svg viewBox="0 0 24 24" fill="none" xmlns="http://www.w3.org/2000/svg" data-icon-name="page-search-lines"><path d="M7.75003 14.9121H9.25003M7.75003 6.91211H15.25M7.75003 10.9121H11.25M19.3713 20.5261C18.1998 21.6976 16.3003 21.6976 15.1287 20.5261C13.9571 19.3545 13.9571 17.455 15.1287 16.2834C16.3003 15.1119 18.1998 15.1119 19.3713 16.2834C20.5429 17.455 20.5429 19.3545 19.3713 20.5261ZM19.3713 20.5261L21.25 22.4048M19.25 12.6621V3.90723C19.25 3.35494 18.8023 2.90723 18.25 2.90723H4.75493C4.20264 2.90723 3.75493 3.35494 3.75493 3.90722L3.75488 20.4082C3.75488 20.9605 4.2026 21.4082 4.75488 21.4082H12" stroke="currentColor" stroke-width="1.5" stroke-linecap="round" stroke-linejoin="round"/></svg>