<svg viewBox="0 0 24 24" fill="none" xmlns="http://www.w3.org/2000/svg" data-icon-name="reverse"><path d="M19.5118 4V8H15.5118M5 20.5V16.5H9M4 12.25C4 7.69365 7.69365 4 12.25 4C15.0278 4 17.5448 5.37281 19.0507 7.47697M20.5 12.25C20.5 16.8063 16.8063 20.5 12.25 20.5C9.49348 20.5 6.99367 19.1481 5.48402 17.0712M12.25 12.25V12.24M12.5 12.25C12.5 12.3881 12.3881 12.5 12.25 12.5C12.1119 12.5 12 12.3881 12 12.25C12 12.1119 12.1119 12 12.25 12C12.3881 12 12.5 12.1119 12.5 12.25Z" stroke="currentColor" stroke-width="1.5" stroke-linecap="round" stroke-linejoin="round"/></svg>
