<svg viewBox="0 0 24 24" fill="none" xmlns="http://www.w3.org/2000/svg" data-icon-name="settings-slider-vertical-two-bar"><path d="M17 14.5V4.5M17 14.5C18.6575 14.5 20 15.8425 20 17.5C20 19.1575 18.6575 20.5 17 20.5C15.3425 20.5 14 19.1575 14 17.5C14 15.8425 15.3425 14.5 17 14.5ZM7 20.5V12.5M7 12.5C5.3425 12.5 4 11.1575 4 9.5C4 7.8425 5.3425 6.5 7 6.5M7 12.5C8.6575 12.5 10 11.1575 10 9.5C10 7.8425 8.6575 6.5 7 6.5M7 6.5V4.5" stroke="currentColor" stroke-width="2" stroke-linecap="square"/></svg>
