<svg viewBox="0 0 24 24" fill="none" xmlns="http://www.w3.org/2000/svg" data-icon-name="user-added-check"><path d="M11.8523 13.4134C7.74082 13.4847 4.86459 16.5338 4.5 20.4121H11.5M11.8523 13.4134C11.9014 13.4125 11.9506 13.4121 12 13.4121C12.3521 13.4121 12.6954 13.4338 13.029 13.4759M11.8523 13.4134C11.2023 13.4247 10.5834 13.5104 10.0001 13.6621M13.029 13.4759C13.3627 13.518 13.6867 13.5805 14.0004 13.6621M13.029 13.4759C13.7309 13.5645 14.3904 13.7433 15 14.0001M14.75 18.7621L16.95 20.4121L20.25 14.9121M15.75 6.66211C15.75 8.73318 14.0711 10.4121 12 10.4121C9.92893 10.4121 8.25 8.73318 8.25 6.66211C8.25 4.59104 9.92893 2.91211 12 2.91211C14.0711 2.91211 15.75 4.59104 15.75 6.66211Z" stroke="currentColor" stroke-width="1.5" stroke-linecap="round" stroke-linejoin="round"/></svg>
