<svg viewBox="0 0 24 24" fill="none" xmlns="http://www.w3.org/2000/svg" data-icon-name="user-circle"><path d="M5.85697 19.0779C7.17056 17.1589 9.33203 15.9121 12 15.9121C14.668 15.9121 16.8294 17.1589 18.143 19.0779M5.85697 19.0779C7.49061 20.53 9.6423 21.4121 12 21.4121C14.3577 21.4121 16.5094 20.53 18.143 19.0779M5.85697 19.0779C3.95086 17.3835 2.75 14.913 2.75 12.1621C2.75 7.05348 6.89137 2.91211 12 2.91211C17.1086 2.91211 21.25 7.05348 21.25 12.1621C21.25 14.913 20.0491 17.3835 18.143 19.0779M15.25 10.1621C15.25 11.957 13.7949 13.4121 12 13.4121C10.2051 13.4121 8.75 11.957 8.75 10.1621C8.75 8.36718 10.2051 6.91211 12 6.91211C13.7949 6.91211 15.25 8.36718 15.25 10.1621Z" stroke="currentColor" stroke-width="1.5" stroke-linejoin="round"/></svg>
