<svg width="24" height="24" viewBox="0 0 24 24" fill="none" xmlns="http://www.w3.org/2000/svg"><title>Wifi Signal</title><path d="M21 8.07275C15.751 3.97575 8.249 3.97575 3 8.07275M6.75098 13.3144C9.81298 10.9264 14.188 10.9264 17.25 13.3144" stroke="currentColor" stroke-width="2" stroke-linecap="round" stroke-linejoin="round"/><path d="M12 19.25C11.7239 19.25 11.5 19.0261 11.5 18.75C11.5 18.4739 11.7239 18.25 12 18.25C12.2761 18.25 12.5 18.4739 12.5 18.75C12.5 19.0261 12.2761 19.25 12 19.25Z" fill="currentColor"/><path d="M12 17.875C12.4832 17.875 12.875 18.2668 12.875 18.75C12.875 19.2332 12.4832 19.625 12 19.625C11.5168 19.625 11.125 19.2332 11.125 18.75C11.125 18.2668 11.5168 17.875 12 17.875Z" stroke="currentColor" stroke-width="0.75" stroke-linecap="square"/></svg>
